<?xml version="1.0" encoding="utf-8"?>
<!-- Generator: Adobe Illustrator 27.5.0, SVG Export Plug-In . SVG Version: 6.00 Build 0)  -->
<svg version="1.1" xmlns="http://www.w3.org/2000/svg" xmlns:xlink="http://www.w3.org/1999/xlink" x="0px" y="0px"
	 viewBox="0 0 3710 3710" style="enable-background:new 0 0 3710 3710;" xml:space="preserve">
<g id="Background">
	<g>
		<g>
			<rect style="fill:#FFFFFF;" width="3710" height="3710"/>
		</g>
	</g>
</g>
<g id="Illustration">
	<g>
		<path style="fill:#F4F7FA;" d="M2931.707,2914.882c-74.928,77.233-141.971,122.634-193.302,156.908
			c-500.615,334.266-1072.874,237.922-1249.802,204.992c-285.452-53.128-526.413-90.609-733.441-277.65
			c-470.431-425.016-447.55-1311.63-88.083-1860.849c42.622-65.122,401.544-597.156,975.042-672.124
			c14.027-1.833,24.493-2.878,33.659-3.848c88.719-9.393,638.491-58.969,1086.775,316.603
			c64.17,53.761,167.438,150.733,263.2,298.631C3375.906,1618.325,3377.016,2455.875,2931.707,2914.882z"/>
		<g>
			<g>
				
					<linearGradient id="SVGID_1_" gradientUnits="userSpaceOnUse" x1="408.1324" y1="665.0188" x2="1011.0006" y2="2249.1067" gradientTransform="matrix(0.9979 -0.0653 0.0653 0.9979 271.4799 96.1151)">
					<stop  offset="0" style="stop-color:#AA80F9"/>
					<stop  offset="0.9964" style="stop-color:#6165D7"/>
				</linearGradient>
				<path style="fill:url(#SVGID_1_);" d="M1074.379,1903.466c-26.751,57.772-1.257,115.559,23.21,154.451
					c5.835,0.035,9.224,1.655,15.12,3.089c53.211,12.945,78.167,6.358,132.262,10.273c11.643,0.843,46.232-7.834,60.129-12.36
					l25.769-8.887c0,0,45.731-140.521-26.129-179.336c-71.861-38.815-44.346-178.665-38.321-254.936
					c16.346-206.945-207.289-188.134-207.539-455.745c-0.067-71.176,23.606-206.936-36.403-263.627
					c-68.367-64.587-118.277-1.229-162.236-55.239c-68.706-84.416-180.199-114.698-246.657-27.822
					c-65.592,85.742,14.108,256.422,212.237,393.603c130.991,114.516,133.038,148.799,122.728,232.286
					c-7.221,58.478-63.003,210.815,16.372,271.645C1044.294,1771.69,1104.959,1837.422,1074.379,1903.466z"/>
				<g>
					<defs>
						<path id="SVGID_00000029006377507568802410000000455051111961059263_" d="M1132.125,2105.212l194.403-50.073
							c0,0,50.071-145.629-21.79-184.444c-71.861-38.815-44.346-178.665-38.321-254.936
							c16.346-206.945-207.288-188.134-207.539-455.745c-0.067-71.176,23.606-206.936-36.403-263.627
							c-68.367-64.587-118.277-1.229-162.236-55.239c-68.706-84.416-180.199-114.698-246.657-27.823
							c-65.592,85.742,14.108,256.422,212.237,393.603c130.991,114.516,133.038,148.798,122.728,232.286
							c-7.221,58.478-63.003,210.815,16.372,271.645s140.04,126.563,109.459,192.606
							C1027.846,2003.959,1132.125,2105.212,1132.125,2105.212z"/>
					</defs>
					<clipPath id="SVGID_00000138571906422265536590000001586720602224755330_">
						<use xlink:href="#SVGID_00000029006377507568802410000000455051111961059263_"  style="overflow:visible;"/>
					</clipPath>
					<g style="opacity:0.5;clip-path:url(#SVGID_00000138571906422265536590000001586720602224755330_);">
						<path style="fill:#FCFDFE;" d="M1216.804,2073.457l3.948-0.493c-2.933-23.531-6.182-47.226-9.656-70.427
							c-25.734-171.779-66.572-334.938-121.382-484.95c-46.444-127.109-103.544-246.577-169.716-355.087
							c-53.215-87.263-112.56-167.945-176.386-239.804c-44.87-50.515-91.472-96.183-138.517-135.73
							c-8.197-6.893-16.966-13.484-25.446-19.859c-11.299-8.492-22.983-17.274-33.402-26.84l-2.69,2.932
							c10.563,9.698,22.325,18.539,33.7,27.09c8.439,6.342,17.164,12.901,25.278,19.724
							c46.897,39.423,93.361,84.954,138.103,135.327c63.668,71.68,122.87,152.171,175.963,239.233
							c66.035,108.286,123.022,227.517,169.375,354.38c54.719,149.758,95.49,312.658,121.183,484.172
							C1210.631,2026.294,1213.875,2049.956,1216.804,2073.457z"/>
						<path style="fill:#FCFDFE;" d="M991.64,1299.9l3.604-1.689c-72.559-154.647-8.845-440.357-8.192-443.224l-3.881-0.884
							C982.516,856.984,918.501,1144.015,991.64,1299.9z"/>
						<path style="fill:#FCFDFE;" d="M1156.692,1750.3l3.775-1.259c-37.014-110.867-244.569-196.446-246.661-197.298l-1.501,3.688
							C914.38,1556.275,1120.257,1641.165,1156.692,1750.3z"/>
						<path style="fill:#FCFDFE;" d="M1172.255,1815.021l3.938-0.574c-10.982-75.503,14.382-184.338,71.421-306.451
							c2.868-6.141,2.868-6.141,2.77-6.89l-3.946,0.525l1.973-0.262l-1.92-0.494c-0.144,0.431-1.226,2.749-2.483,5.436
							C1186.645,1629.122,1161.161,1738.756,1172.255,1815.021z"/>
						<path style="fill:#FCFDFE;" d="M1210.844,2030.589l3.609-1.675c-35.388-76.222-156.348-106.304-157.564-106.599l-0.939,3.868
							C1057.15,1926.474,1176.265,1956.113,1210.844,2030.589z"/>
						<path style="fill:#FCFDFE;" d="M1222.821,2073.766c14.998-66.085,49.461-130.025,105.358-195.473l-3.028-2.586
							c-56.325,65.952-91.066,130.45-106.211,197.179L1222.821,2073.766z"/>
						<path style="fill:#FCFDFE;" d="M777.534,968.278l3.502-1.889c-45.134-83.733-73.14-182.162-82.343-214.507
							c-2.228-7.83-3.021-10.583-3.464-11.494l-3.578,1.741c0.329,0.7,1.602,5.176,3.214,10.843
							C704.097,785.42,732.194,884.163,777.534,968.278z"/>
						<path style="fill:#FCFDFE;" d="M871.055,1093.566l2.791-2.837c-63.571-62.575-241.953-60.572-249.516-60.457l0.062,3.98
							C626.227,1034.225,808.672,1032.161,871.055,1093.566z"/>
					</g>
				</g>
			</g>
			<g>
				<defs>
					<path id="SVGID_00000021803018578982646290000018311178268463892109_" d="M1390.035,2403.951l-231.922,72.694
						c0,0-80.948-105.287-50.43-207.062c62.267-207.653-123.948-247.695-199.433-276.134
						c-113.838-42.889-195.451-130.331-75.085-217.263s-79.995-252.902-273.825-295.671
						c-189.676-41.852-224.73-403.173,194.119-350.285c250.135,31.585,288.567,274.246,337.108,392.174
						s231.989,71.444,216.701,238.884c-13.059,143.024-84.295,266.656,19.394,329.672
						C1430.352,2153.973,1468.823,2249.007,1390.035,2403.951z"/>
				</defs>
				<clipPath id="SVGID_00000056415710419082923930000009064396871542635668_">
					<use xlink:href="#SVGID_00000021803018578982646290000018311178268463892109_"  style="overflow:visible;"/>
				</clipPath>
				
					<linearGradient id="SVGID_00000150088600738330734200000006141513853892247723_" gradientUnits="userSpaceOnUse" x1="4367.6118" y1="984.0447" x2="3883.7468" y2="2359.2415" gradientTransform="matrix(-0.9542 0.2991 0.2991 0.9542 4429.7446 -1062.5543)">
					<stop  offset="0.0036" style="stop-color:#E38DDD"/>
					<stop  offset="1" style="stop-color:#9571F6"/>
				</linearGradient>
				
					<path style="clip-path:url(#SVGID_00000056415710419082923930000009064396871542635668_);fill:url(#SVGID_00000150088600738330734200000006141513853892247723_);" d="
					M1390.035,2403.951l-231.922,72.694c0,0-80.948-105.287-50.43-207.062c62.267-207.653-123.948-247.695-199.433-276.134
					c-113.838-42.889-183.094-122.698-91.958-217.116c103.115-106.829-63.121-253.049-256.952-295.817
					c-189.676-41.852-224.73-403.173,194.119-350.285c250.135,31.585,288.567,274.246,337.108,392.174
					s231.989,71.444,216.701,238.884c-13.059,143.024-84.295,266.656,19.394,329.672
					C1430.352,2153.973,1468.823,2249.007,1390.035,2403.951z"/>
				<g style="opacity:0.5;clip-path:url(#SVGID_00000056415710419082923930000009064396871542635668_);">
					<path style="fill:#BEB8F2;" d="M1296.405,2456.938l-5.093,0.627c-0.388-3.154-40.39-318.807-174.399-619.768
						c-123.456-277.267-354.288-598.436-752.865-553.928l-0.57-5.099c177.428-19.814,336.932,29.931,474.084,147.851
						c109.561,94.198,205.14,231.867,284.082,409.183C1255.939,2137.46,1296.015,2453.777,1296.405,2456.938z"/>
					<path style="fill:#BEB8F2;" d="M892.745,1478.372l-5.05,0.916c-30.553-168.02-164.16-378.416-165.505-380.522l4.322-2.765
						C727.863,1098.117,862.012,1309.367,892.745,1478.372z"/>
					<path style="fill:#BEB8F2;" d="M799.208,1402.307c-197.004-51.027-335.549,46.511-336.924,47.502l-2.999-4.162
						c1.396-1.009,141.79-99.96,341.21-48.308L799.208,1402.307z"/>
					<path style="fill:#BEB8F2;" d="M1193.803,2039.328c-127.097-213.678-458.797-171.885-461.995-171.208l-1.388-4.934
						c3.075-0.962,339.568-42.056,467.792,173.52L1193.803,2039.328z"/>
					<path style="fill:#BEB8F2;" d="M1164.656,1941.04l-5.108,0.505c-15.63-157.876,113.177-310.252,114.482-311.773l3.896,3.337
						C1276.636,1634.615,1149.241,1785.368,1164.656,1941.04z"/>
					<path style="fill:#BEB8F2;" d="M1283.924,2408.032c-35.222-87.634-185.796-118.569-187.313-118.873l1.002-5.03
						c6.303,1.253,154.811,31.77,191.071,121.99L1283.924,2408.032z"/>
					<path style="fill:#BEB8F2;" d="M1275.456,2333.156l-5.085,0.688c-10.023-74.001,71.625-185.53,98.456-222.179
						c3.791-5.18,7.064-9.65,7.491-10.562l4.678,2.108c-0.583,1.294-2.75,4.272-8.029,11.485
						C1346.439,2150.932,1265.71,2261.205,1275.456,2333.156z"/>
				</g>
			</g>
			<g>
				
					<linearGradient id="SVGID_00000142145680009959747990000017764632751523749775_" gradientUnits="userSpaceOnUse" x1="3437.7346" y1="1492.9542" x2="3949.7458" y2="2335.8564" gradientTransform="matrix(0.9997 0.0227 -0.0227 0.9997 -2539.4146 119.3449)">
					<stop  offset="0" style="stop-color:#FFC444"/>
					<stop  offset="0.9964" style="stop-color:#F36F56"/>
				</linearGradient>
				<path style="fill:url(#SVGID_00000142145680009959747990000017764632751523749775_);" d="M1170.512,2462.694
					c0.867,0.406,1.737,0.81,2.609,1.211c51.582,23.75,112.149,40.595,183.355,45.135c13.943-0.094,27.885-0.188,41.828-0.282
					c12.56-32.758,18.642-66.162-23.416-80.156c-65.315-21.731-63.371-137.714-44.047-178.175
					c23.916-50.08,77.21-167.832-23.235-203.015c-83.62-29.29-143.566-31.1-146.157-139.996
					c-2.591-108.895-59.859-178.534-158.65-175.081c-103.962,3.634-184.823-137.076-271.236-93.478
					c-150.571,75.969-23.706,319.645,154.302,394.555c178.007,74.91,72.698,136.66,65.121,225.479
					c-10.345,121.257,154.651,100.324,196.566,149.365C1161.75,2424.868,1168.319,2443.902,1170.512,2462.694z"/>
				<g>
					<defs>
						<path id="SVGID_00000145765763378259754970000005481997038263253150_" d="M1163.682,2529.482l226.127,5.131
							c13.899-31.711,32.059-90.381-14.92-106.012c-65.315-21.731-63.371-137.713-44.047-178.175
							c23.916-50.079,77.21-167.831-23.235-203.015c-83.62-29.29-143.566-31.1-146.157-139.995
							c-2.591-108.895-59.859-178.534-158.649-175.081c-103.962,3.634-184.823-137.076-271.236-93.478
							c-150.571,75.968-23.706,319.644,154.302,394.555c178.007,74.91,72.698,136.66,65.121,225.479
							c-10.345,121.257,154.651,100.323,196.566,149.365C1180.411,2446.702,1172.526,2498.127,1163.682,2529.482z"/>
					</defs>
					<clipPath id="SVGID_00000161595428672730920090000011370417418237997218_">
						<use xlink:href="#SVGID_00000145765763378259754970000005481997038263253150_"  style="overflow:visible;"/>
					</clipPath>
					<g style="opacity:0.5;clip-path:url(#SVGID_00000161595428672730920090000011370417418237997218_);">
						<path style="fill:#FCFDFE;" d="M1270.962,2496.329l4.83-0.836c-61.22-353.063-293.492-674.685-606.173-839.354l-2.283,4.337
							C978.699,1824.451,1209.996,2144.732,1270.962,2496.329z"/>
						<path style="fill:#FCFDFE;" d="M1221.095,2306.697l4.9,0.134c3.814-140.771,127.3-247.236,128.548-248.295l-3.173-3.736
							C1350.106,2055.871,1224.97,2163.706,1221.095,2306.697z"/>
						<path style="fill:#FCFDFE;" d="M1257.929,2431.687l4.375-2.209c-64.362-127.44-323.194-152.244-325.801-152.479l-0.441,4.882
							C938.64,2282.114,1194.791,2306.67,1257.929,2431.687z"/>
						<path style="fill:#FCFDFE;" d="M1055.348,1997.047l4.55-1.826c-42.242-105.087,29.881-263.077,30.614-264.66l-4.446-2.062
							C1085.322,1730.101,1012.325,1890.019,1055.348,1997.047z"/>
						<path style="fill:#FCFDFE;" d="M903.543,1827.503l2.68-4.105c-108.076-70.529-279.315-37.823-281.034-37.482l0.948,4.809
							C627.834,1790.386,797.151,1758.072,903.543,1827.503z"/>
					</g>
				</g>
			</g>
		</g>
		<g>
			<g>
				<g>
					<g>
						
							<linearGradient id="SVGID_00000068656366304606526890000011522248208154408363_" gradientUnits="userSpaceOnUse" x1="2668.4893" y1="2703.8623" x2="1529.2008" y2="1731.9967">
							<stop  offset="0" style="stop-color:#444B8C"/>
							<stop  offset="0.9964" style="stop-color:#26264F"/>
						</linearGradient>
						<path style="fill:url(#SVGID_00000068656366304606526890000011522248208154408363_);" d="M2390.644,679.64v2380.825
							c0,35.604-30.417,43.265-64.908,44.394l-1182.185,61.138l-17.91,0.586c-36.75,1.202-66.868-27.954-66.868-64.793V638.316
							c0-36.84,30.119-65.996,66.868-64.794l24.305,0.795L2336.459,666.6C2370.95,667.728,2390.644,644.036,2390.644,679.64z"/>
						
							<linearGradient id="SVGID_00000113335508969197866860000000406806164951883183_" gradientUnits="userSpaceOnUse" x1="-1309.2321" y1="3106.1479" x2="2889.0515" y2="3262.3203" gradientTransform="matrix(0 -1 1 0 -1389.0323 1734.3226)">
							<stop  offset="0" style="stop-color:#444B8C"/>
							<stop  offset="0.9964" style="stop-color:#26264F"/>
						</linearGradient>
						<path style="fill:url(#SVGID_00000113335508969197866860000000406806164951883183_);" d="M2427.473,679.64v2380.825
							c0,35.604-28.174,65.656-62.664,66.784l-1202.338,39.333c-36.75,1.202-66.868-27.954-66.868-64.793V638.316
							c0-36.84,30.119-65.996,66.868-64.794l1202.338,39.334C2399.299,613.984,2427.473,644.036,2427.473,679.64z"/>
						
							<linearGradient id="SVGID_00000081611490036804078470000005896519004200729218_" gradientUnits="userSpaceOnUse" x1="1137.1794" y1="1914.6407" x2="2388.5586" y2="1914.6407">
							<stop  offset="0" style="stop-color:#FF9085"/>
							<stop  offset="1" style="stop-color:#FB6FBB"/>
						</linearGradient>
						<path style="fill:url(#SVGID_00000081611490036804078470000005896519004200729218_);" d="M2388.559,810.524v2205.552
							c0,33.24-26.329,61.264-58.558,62.277l-1130.578,35.515c-34.21,1.075-62.243-26.128-62.243-60.451V776.001
							c0-34.324,28.034-61.589,62.243-60.591L2330,748.379C2362.229,749.319,2388.559,777.284,2388.559,810.524z"/>
					</g>
					<path style="fill:#DE8BDF;" d="M1795.227,667.289c0,12.545-9.993,22.413-22.328,22.039
						c-12.342-0.374-22.353-10.858-22.353-23.418c0-12.56,10.011-22.426,22.353-22.039
						C1785.233,644.26,1795.227,654.744,1795.227,667.289z"/>
				</g>
				<g>
					<path style="fill:#F4F7FA;" d="M2284.012,1822.59l-1035.975-1.277c-30.611-0.038-55.46-24.994-55.46-55.742V826.84
						c0-30.748,24.849-54.984,55.46-54.135l1035.975,28.747c28.984,0.804,52.447,25.661,52.447,55.521v911.616
						C2336.459,1798.448,2312.996,1822.625,2284.012,1822.59z"/>
					<path style="fill:#C281E8;" d="M1964.203,1714.412l-384.503-1.541c-5.045-0.02-9.135-4.177-9.135-9.284v-113.012
						c0-5.107,4.09-9.218,9.135-9.18l384.503,2.83c4.945,0.036,8.953,4.164,8.953,9.219v111.852
						C1973.156,1710.35,1969.148,1714.432,1964.203,1714.412z"/>
					<polygon style="fill:#D8DEE8;" points="2244.917,1279.591 1319.483,1265.416 1319.483,898.846 2244.917,921.614 					"/>
					<polygon style="fill:#D8DEE8;" points="2244.917,1475.124 1319.483,1465.643 1319.483,1336.266 2244.917,1348.78 					"/>
				</g>
				<g>
					<path style="fill:#F4F7FA;" d="M2284.012,2986.687l-1035.975,30.039c-30.611,0.887-55.46-23.318-55.46-54.066v-938.731
						c0-30.748,24.849-55.735,55.46-55.811l1035.975-2.569c28.984-0.072,52.447,24.076,52.447,53.936v911.616
						C2336.459,2960.96,2312.996,2985.847,2284.012,2986.687z"/>
				</g>
				<path style="fill:#D8DEE8;" d="M2140.102,2644.52l-741.448,14.855c-9.972,0.2-18.06-7.786-18.06-17.837v-538.853
					c0-10.051,8.088-18.243,18.06-18.297l741.448-4.034c9.595-0.052,17.371,7.893,17.371,17.746v528.231
					C2157.472,2636.184,2149.697,2644.327,2140.102,2644.52z"/>
				<path style="fill:#C281E8;" d="M1964.203,2880.704l-384.503,10.008c-5.045,0.131-9.135-3.903-9.135-9.01V2768.69
					c0-5.107,4.09-9.341,9.135-9.455l384.503-8.719c4.945-0.112,8.953,3.895,8.953,8.95v111.852
					C1973.156,2876.373,1969.148,2880.575,1964.203,2880.704z"/>
				<path style="fill:#F4F7FA;" d="M1772.899,2407.972c-3.616,0.05-7.229-1.134-10.399-3.552l-405.813-309.43
					c-9.226-7.034-11.949-21.799-6.082-32.972c5.866-11.168,18.087-14.514,27.309-7.474l395.348,302.019l416.572-306.211
					c9.005-6.62,20.632-3,25.963,8.093c5.325,11.087,2.347,25.445-6.652,32.074l-426.38,314.019
					C1779.72,2406.781,1776.308,2407.925,1772.899,2407.972z"/>
			</g>
			<path style="opacity:0.5;fill:#D8DEE8;" d="M2427.473,826.202c-35.673,4.399-86.181,12.801-144.741,30.269
				c-85.914,25.628-301.309,89.882-416.827,270.988c-134.433,210.76-59.094,462.957-40.921,523.79
				c60.165,201.403,211.833,380.349,298.725,482.869c101.826,120.14,145.981,143.37,155.5,219.951
				c15.256,122.756-83.314,182.849-89.094,377.91c-1.158,39.061-2.293,93.126,18.618,157.702
				c40.917,126.354,135.99,199.509,182.649,230.475C2403.412,2355.505,2415.442,1590.854,2427.473,826.202z"/>
			<g>
				
					<linearGradient id="SVGID_00000129889463812029262510000010994486516518236071_" gradientUnits="userSpaceOnUse" x1="999.838" y1="2154.7139" x2="1539.1438" y2="2154.7139" gradientTransform="matrix(-1 0 0 1 4027.9646 0)">
					<stop  offset="0" style="stop-color:#444B8C"/>
					<stop  offset="0.9964" style="stop-color:#3E4177"/>
				</linearGradient>
				<path style="fill:url(#SVGID_00000129889463812029262510000010994486516518236071_);" d="M2567.663,1710.729
					c99.455-48.571,293.443,127.357,387.846,295.87c37.621,67.151,81.789,145.991,70.951,239.718
					c-19.212,166.167-203.542,311.924-457.256,360.584c-7.141-25.511-14.285-51.019-21.427-76.528
					c27.742-28.891,69.226-70.604,122.245-118.395c81.442-73.412,98.176-78.306,102.082-101.483
					c12.794-75.918-182.435-139.471-251.876-272.953C2460.525,1922.777,2491.26,1748.042,2567.663,1710.729z"/>
				
					<linearGradient id="SVGID_00000082340568514476747640000009989626602166263988_" gradientUnits="userSpaceOnUse" x1="2708.8035" y1="2651.499" x2="2790.5554" y2="3134.5789">
					<stop  offset="0" style="stop-color:#444B8C"/>
					<stop  offset="0.9964" style="stop-color:#26264F"/>
				</linearGradient>
				<path style="fill:url(#SVGID_00000082340568514476747640000009989626602166263988_);" d="M2698.327,3046.27
					c0,0-16.328,40.282-8.209,56.056c8.524,16.561,33.168,11.637,102.545,14.243c71.055,2.669,87.127,8.372,89.966,1.234
					c5.674-14.263-49.532-59.56-114.113-71.533C2740.068,3040.996,2715.422,3043.23,2698.327,3046.27z"/>
				
					<linearGradient id="SVGID_00000163034226235697426590000008697426762540988064_" gradientUnits="userSpaceOnUse" x1="1367.8463" y1="2734.0398" x2="1297.4414" y2="3174.834" gradientTransform="matrix(-1 0 0 1 4027.9646 0)">
					<stop  offset="0" style="stop-color:#311944"/>
					<stop  offset="1" style="stop-color:#A03976"/>
				</linearGradient>
				<path style="fill:url(#SVGID_00000163034226235697426590000008697426762540988064_);" d="M2712.957,2986.051l38.632,60.218
					c0,0-17.804,17.569-48.055,11.028l-42.496-57.049L2712.957,2986.051z"/>
				
					<linearGradient id="SVGID_00000099634930717496703970000009240493954871340421_" gradientUnits="userSpaceOnUse" x1="999.8384" y1="2154.7529" x2="1539.1412" y2="2154.7529" gradientTransform="matrix(-1 0 0 1 4027.9646 0)">
					<stop  offset="0" style="stop-color:#444B8C"/>
					<stop  offset="0.9964" style="stop-color:#3E4177"/>
				</linearGradient>
				<path style="opacity:0.3;fill:url(#SVGID_00000099634930717496703970000009240493954871340421_);" d="M2520.228,2037.542
					c-59.703-114.766-28.968-289.5,47.435-326.813c20.035-9.783,43.944-10.33,70.065-3.788
					c-13.755,39.719-11.028,68.437-4.24,88.776c30.271,90.724,161.143,80.402,202.03,183.664
					c25.848,65.277-15.255,97.67,21.427,149.993c38.016,54.225,100.181,45.133,119.382,97.954
					c14.308,39.357-13.906,61.737-3.061,94.893c3.022,9.24,8.978,18.517,18.992,27.327
					c-67.238,120.926-223.701,219.119-423.053,257.354c-7.141-25.511-14.285-51.019-21.427-76.528
					c27.742-28.891,69.226-70.604,122.245-118.395c81.442-73.412,98.176-78.306,102.082-101.483
					C2784.897,2234.577,2589.67,2171.025,2520.228,2037.542z"/>
				
					<linearGradient id="SVGID_00000052796962940654932940000015255440513777424318_" gradientUnits="userSpaceOnUse" x1="1298.6858" y1="2386.3545" x2="1759.819" y2="2386.3545" gradientTransform="matrix(-1 0 0 1 4027.9646 0)">
					<stop  offset="0" style="stop-color:#444B8C"/>
					<stop  offset="0.9964" style="stop-color:#3E4177"/>
				</linearGradient>
				<path style="fill:url(#SVGID_00000052796962940654932940000015255440513777424318_);" d="M2635.529,1746.74
					c-4.303,173.928-1.889,361.986,10.706,562.187c16.083,255.634,46.213,490.433,83.044,701.425
					c-16.361,5.206-32.721,10.41-49.081,15.617c-168.275-163.954-218.629-308.181-232.415-411.925
					c-9.743-73.336,5.003-79.639-8.148-171.424c-25.046-174.791-90.383-234.652-136.265-398.285
					c-17.22-61.418-36.392-154.199-35.168-275.146C2390.643,1761.706,2513.087,1754.223,2635.529,1746.74z"/>
				
					<linearGradient id="SVGID_00000021829659499551952670000007686635456563765417_" gradientUnits="userSpaceOnUse" x1="1595.9978" y1="835.3492" x2="1261.3202" y2="2027.1288" gradientTransform="matrix(-1 0 0 1 4027.9646 0)">
					<stop  offset="0" style="stop-color:#FFC444"/>
					<stop  offset="0.9964" style="stop-color:#F36F56"/>
				</linearGradient>
				<path style="fill:url(#SVGID_00000021829659499551952670000007686635456563765417_);" d="M2756.069,1435.202
					c-3.055,0.7-16.321,5.113-21.566,60.531c-12.649,133.625,56.925,187.725,39.794,260.191
					c-16.444,69.557-100.308,103.303-186.628,138.04c-57.686,23.214-236.103,95.007-339.863,14.277
					c-43.668-33.977-48.448-74.998-79.601-225.782c-79.154-383.106-109.817-416.021-76.527-498.954
					c57.168-142.422,210.235-201.401,235.702-211.214c271.552-104.635,592.229,87.674,718.947,308.609
					c16.686,29.09,116.333,202.83,46.321,285.238c-42.357,49.854-139.691,57.903-203.927,23.906
					C2802.899,1544.621,2784.664,1428.646,2756.069,1435.202z"/>
				
					<linearGradient id="SVGID_00000106139575530730112220000007418428263957108893_" gradientUnits="userSpaceOnUse" x1="1059.1019" y1="1418.8749" x2="1117.2625" y2="1607.6414" gradientTransform="matrix(-1 0 0 1 4027.9646 0)">
					<stop  offset="0" style="stop-color:#FFC444"/>
					<stop  offset="0.9964" style="stop-color:#F36F56"/>
				</linearGradient>
				<path style="fill:url(#SVGID_00000106139575530730112220000007418428263957108893_);" d="M3052.861,1536.543
					c0.848,0,1.709-0.18,2.534-0.556c3.073-1.4,4.429-5.029,3.032-8.108c-2.327-5.095-58.382-125.396-187.916-172.867
					c-3.18-1.178-6.69,0.46-7.849,3.642c-1.166,3.174,0.466,6.689,3.642,7.85c124.594,45.666,180.428,165.256,180.979,166.457
					C3048.31,1535.216,3050.533,1536.543,3052.861,1536.543z"/>
				
					<linearGradient id="SVGID_00000034090700810494493900000008956217749601999800_" gradientUnits="userSpaceOnUse" x1="2526.4717" y1="1280.9197" x2="2608.314" y2="1419.1422">
					<stop  offset="0" style="stop-color:#311944"/>
					<stop  offset="1" style="stop-color:#A03976"/>
				</linearGradient>
				<path style="fill:url(#SVGID_00000034090700810494493900000008956217749601999800_);" d="M2544.315,1399.137
					c0.716-5.525,6.321-43.697,38.194-55.926c15.853-6.083,43.713-7.861,54.562,9.548c6.812,10.931,6.216,28.305-2.729,36.829
					c-11.309,10.776-26.055-2.033-46.377,6.82c-24.427,10.641-28.393,40.156-36.829,38.193
					C2544.501,1433.057,2542.422,1413.739,2544.315,1399.137z"/>
				
					<linearGradient id="SVGID_00000146496125113595632800000015332791185761339010_" gradientUnits="userSpaceOnUse" x1="1787.2733" y1="889.0627" x2="1452.5952" y2="2080.844" gradientTransform="matrix(-1 0 0 1 4027.9646 0)">
					<stop  offset="0" style="stop-color:#FFC444"/>
					<stop  offset="0.9964" style="stop-color:#F36F56"/>
				</linearGradient>
				<path style="opacity:0.3;fill:url(#SVGID_00000146496125113595632800000015332791185761339010_);" d="M2269.22,1134.527
					c17.138,46.658-34.287,87.088-12.244,137.748c31.592,72.603,157.143,35.339,202.03,107.138
					c53.199,85.094-68.625,224.665-18.366,272.435c22.903,21.768,49.364-6.112,116.32,9.184
					c95.358,21.782,124.009,97.135,168.359,85.709c13.949-3.593,30.858-16.256,45.084-55.238
					c6.202,21.629,9.154,42.163,3.893,64.422c-16.444,69.557-100.308,103.303-186.629,138.04
					c-57.687,23.214-236.102,95.007-339.862,14.277c-43.668-33.977-48.448-74.998-79.601-225.782
					c-79.154-383.106-109.817-416.021-76.527-498.954c18.152-45.222,45.98-82.003,76.314-111.497
					C2233.394,1086.453,2260.25,1110.101,2269.22,1134.527z"/>
				
					<linearGradient id="SVGID_00000027580030169434463080000018117458447013351827_" gradientUnits="userSpaceOnUse" x1="2483.9934" y1="1461.787" x2="1670.2312" y2="792.9603">
					<stop  offset="0" style="stop-color:#FFC444"/>
					<stop  offset="0.2564" style="stop-color:#FFC145"/>
					<stop  offset="0.4611" style="stop-color:#FDB747"/>
					<stop  offset="0.648" style="stop-color:#FBA64A"/>
					<stop  offset="0.823" style="stop-color:#F78E4F"/>
					<stop  offset="0.9903" style="stop-color:#F37056"/>
					<stop  offset="0.9964" style="stop-color:#F36F56"/>
				</linearGradient>
				<path style="fill:url(#SVGID_00000027580030169434463080000018117458447013351827_);" d="M2542.327,1363.176
					c-7.326,6.663-89.483,94.894-178.847,72.551c-77.827-19.461-125.61-95.128-133.982-158.797
					c-19.907-151.423,177.372-278.524,153.053-309.168c-14.303-18.023-90.473,15.423-143.87,48.977
					c-43.785,27.514-227.253,142.804-222.336,336.107c0.499,19.618,3.661,143.928,85.933,205.969
					c111.112,83.79,282.829,81.552,466.277-120.99C2558.396,1408.903,2552.489,1392.098,2542.327,1363.176z"/>
				<g>
					
						<linearGradient id="SVGID_00000004509599859554191570000018297587443841683121_" gradientUnits="userSpaceOnUse" x1="2998.5742" y1="1455.4069" x2="2705.3066" y2="1234.4331">
						<stop  offset="0" style="stop-color:#444B8C"/>
						<stop  offset="0.9964" style="stop-color:#26264F"/>
					</linearGradient>
					<path style="fill:url(#SVGID_00000004509599859554191570000018297587443841683121_);" d="M2943.417,1177.649l-88.453,282.551
						c-2.901,9.265-11.331,15.691-21.031,16.034l-115.659,16.814c-14.917,0.528-26.338-13.135-23.172-27.722l77.992-289.211
						c2.225-10.265,11.154-17.696,21.653-18.022l126.119-10.154C2936.6,1147.449,2948.12,1162.624,2943.417,1177.649z"/>
					
						<linearGradient id="SVGID_00000147184997015152066380000005760440818865545397_" gradientUnits="userSpaceOnUse" x1="1161.9895" y1="1238.2887" x2="1301.4418" y2="1489.7255" gradientTransform="matrix(-1 0 0 1 4027.9646 0)">
						<stop  offset="0" style="stop-color:#444B8C"/>
						<stop  offset="0.9964" style="stop-color:#26264F"/>
					</linearGradient>
					<path style="fill:url(#SVGID_00000147184997015152066380000005760440818865545397_);" d="M2939.174,1186.939l-85.848,274.228
						c-2.814,8.992-10.995,15.23-20.41,15.561l-101.64,16.32c-14.477,0.511-25.562-12.75-22.489-26.906l76.178-280.855
						c2.161-9.962,10.826-17.175,21.014-17.491l111.306-9.693C2932.559,1157.629,2943.74,1172.357,2939.174,1186.939z"/>
					
						<linearGradient id="SVGID_00000045578118748829377020000015912390567964038048_" gradientUnits="userSpaceOnUse" x1="2687.2368" y1="1163.531" x2="2904.325" y2="1689.1848">
						<stop  offset="0" style="stop-color:#444B8C"/>
						<stop  offset="0.9964" style="stop-color:#26264F"/>
					</linearGradient>
					<path style="opacity:0.3;fill:url(#SVGID_00000045578118748829377020000015912390567964038048_);" d="M2708.786,1466.143
						l72.782-268.329c5.403,2.666,13.206,6.789,20.531,13.072c28.667,24.588,45.085,69.091,35.621,104.686
						c-12.068,45.395-58.386,46.799-64.792,84.57c-5.014,29.568,18.967,60.863,38.774,79.992l-80.426,12.913
						C2716.801,1493.559,2705.715,1480.298,2708.786,1466.143z"/>
				</g>
				
					<linearGradient id="SVGID_00000060011447625353169030000013115424841046381734_" gradientUnits="userSpaceOnUse" x1="1493.5217" y1="726.8889" x2="1454.7482" y2="1057.4854" gradientTransform="matrix(-1 0 0 1 4027.9646 0)">
					<stop  offset="0" style="stop-color:#311944"/>
					<stop  offset="1" style="stop-color:#A03976"/>
				</linearGradient>
				<path style="fill:url(#SVGID_00000060011447625353169030000013115424841046381734_);" d="M2607.302,945.065
					c-5.061,17.759,5.623,36.216,23.575,40.548c21.745,5.247,48.234,12.502,59.672,19.047c20.997,12.016-63.956-1.865-142.096-3.697
					c-48.782-1.144-85.236-6.62-105.741-10.573c-5.505-1.062-5.931-8.746-0.602-10.479c19.527-6.353,51.272-15.706,78.101-19.078
					c33.216-4.176,68.835-77.472,68.835-77.472l28.466,25.858L2607.302,945.065z"/>
				
					<linearGradient id="SVGID_00000088114574114595481420000014222830753583392665_" gradientUnits="userSpaceOnUse" x1="1133.0127" y1="1386.8104" x2="1226.3146" y2="1386.8104" gradientTransform="matrix(-1 0 0 1 4027.9646 0)">
					<stop  offset="0" style="stop-color:#311944"/>
					<stop  offset="1" style="stop-color:#A03976"/>
				</linearGradient>
				<path style="fill:url(#SVGID_00000088114574114595481420000014222830753583392665_);" d="M2890.044,1378.971l-5.401-8.833
					c-4.778-18.346-22.402-30.318-41.218-27.998l-28.382,3.5c-8.881,1.095-14.891,9.545-13.064,18.305
					c2.641,12.668,9.437,27.824,26.875,26.648c29.623-1.998,48.56,41.173,48.56,41.173l11.369-16.014
					C2896.524,1404.85,2897.02,1390.379,2890.044,1378.971z"/>
				
					<linearGradient id="SVGID_00000075130908918709538240000017673848266233463997_" gradientUnits="userSpaceOnUse" x1="2699.5452" y1="715.2062" x2="2647.7117" y2="869.3427">
					<stop  offset="0" style="stop-color:#444B8C"/>
					<stop  offset="0.9964" style="stop-color:#26264F"/>
				</linearGradient>
				<path style="fill:url(#SVGID_00000075130908918709538240000017673848266233463997_);" d="M2670.743,907.501
					c24.55-3.637,52.05-24.275,51.515-41.328c-0.734-23.437-54.312-36.273-81.363-42.753c-27.135-6.5-38.644-4.148-46.411,1.765
					c-7.936,6.042-13.149,16.857-14.855,26.183c-0.93,5.082-0.979,12.075-0.109,26.011c0.774,12.367,0.546,11.824,0.867,15.477
					c0.771,8.775,3.166,24.208,11.719,45.602c3.564-3.906,8.281-8.573,14.238-13.172c2.291-1.77,11.359-8.622,21.669-12.773
					C2645.71,905.387,2655.841,909.708,2670.743,907.501z"/>
				
					<linearGradient id="SVGID_00000074413327256664887830000017703827959119680695_" gradientUnits="userSpaceOnUse" x1="1458.47" y1="771.5728" x2="1421.7369" y2="863.4053" gradientTransform="matrix(-1 0 0 1 4027.9646 0)">
					<stop  offset="0" style="stop-color:#311944"/>
					<stop  offset="1" style="stop-color:#A03976"/>
				</linearGradient>
				<path style="fill:url(#SVGID_00000074413327256664887830000017703827959119680695_);" d="M2579.045,914.615
					c0,0,1.591,34.199,33.815,49.214c28.855,13.443,67.148-46.8,56.614-69.805c-3.514-7.673-14.398-16.021-25.551-18.606
					c-6.586-1.527-9.818-0.213-20.532-2.916c-9.881-2.495-11.802-4.794-15.617-4.024c-4.773,0.959-10.858,6.391-15.405,27.643
					c-2.367-8.293-7.618-13.853-13.305-14.193c-0.909-0.054-3.535,0.199-5.69,1.582
					C2565.571,888.514,2567.096,901.195,2579.045,914.615z"/>
			</g>
		</g>
	</g>
</g>
</svg>
